<svg xmlns="http://www.w3.org/2000/svg" viewBox="0 0 64 64">
  <rect width="64" height="64" rx="14" fill="#33543E"/>
  <g transform="translate(2.27, 54.00) scale(0.06180, -0.06180)">
    <path d="M221 284V422H342Q383 422 404.5 442.0Q426 462 426 495Q426 528 404.5 548.0Q383 568 342 568H221V712H374Q448 712 504.0 685.0Q560 658 592.0 610.0Q624 562 624 498Q624 434 591.5 386.0Q559 338 501.0 311.0Q443 284 364 284ZM59 0V712H259V0ZM443 0 249 304 429 343 670 0Z" fill="#FFFFFF"/>
  </g>
  <g transform="translate(41.83, 54.00) scale(0.06180, -0.06180)">
    <path d="M155 -12Q108 -12 77.0 20.0Q46 52 46 98Q46 145 77.0 177.0Q108 209 155 209Q202 209 232.5 177.0Q263 145 263 98Q263 52 232.5 20.0Q202 -12 155 -12Z" fill="#FFFFFF"/>
  </g>
</svg>